<?xml version="1.0" encoding="UTF-8" standalone="no"?>
<!-- Created with Inkscape (http://www.inkscape.org/) -->

<svg
   xmlns:dc="http://purl.org/dc/elements/1.1/"
   xmlns:cc="http://creativecommons.org/ns#"
   xmlns:rdf="http://www.w3.org/1999/02/22-rdf-syntax-ns#"
   xmlns:svg="http://www.w3.org/2000/svg"
   xmlns="http://www.w3.org/2000/svg"
   xmlns:sodipodi="http://sodipodi.sourceforge.net/DTD/sodipodi-0.dtd"
   xmlns:inkscape="http://www.inkscape.org/namespaces/inkscape"
   width="348.98355"
   height="490"
   id="svg8365"
   version="1.1"
   inkscape:version="0.48.5 r10040"
   sodipodi:docname="New document 15">
  <title
     id="title9282">Philippine Economic Zone Authority (PEZA)</title>
  <defs
     id="defs8367" />
  <sodipodi:namedview
     id="base"
     pagecolor="#ffffff"
     bordercolor="#666666"
     borderopacity="1.0"
     inkscape:pageopacity="0.0"
     inkscape:pageshadow="2"
     inkscape:zoom="0.0875"
     inkscape:cx="-31.854317"
     inkscape:cy="579.72965"
     inkscape:document-units="px"
     inkscape:current-layer="layer1"
     showgrid="false"
     inkscape:snap-bbox="true"
     inkscape:bbox-paths="true"
     inkscape:bbox-nodes="true"
     inkscape:snap-bbox-edge-midpoints="true"
     inkscape:snap-bbox-midpoints="true"
     inkscape:object-paths="true"
     inkscape:snap-global="false"
     fit-margin-top="0"
     fit-margin-left="0"
     fit-margin-right="0"
     fit-margin-bottom="0"
     inkscape:window-width="1366"
     inkscape:window-height="705"
     inkscape:window-x="-8"
     inkscape:window-y="-8"
     inkscape:window-maximized="1" />
  <metadata
     id="metadata8370">
    <rdf:RDF>
      <cc:Work
         rdf:about="">
        <dc:format>image/svg+xml</dc:format>
        <dc:type
           rdf:resource="http://purl.org/dc/dcmitype/StillImage" />
        <dc:title>Philippine Economic Zone Authority (PEZA)</dc:title>
      </cc:Work>
    </rdf:RDF>
  </metadata>
  <g
     inkscape:label="Layer 1"
     inkscape:groupmode="layer"
     id="layer1"
     transform="translate(-1410.0937,-905.78617)">
    <g
       id="g9272"
       transform="matrix(0.57380917,0,0,0.57380917,600.96901,594.87126)">
      <g
         id="g9140">
        <path
           style="fill:#0038a8;fill-opacity:1;stroke:none"
           d="m 1492.125,541.84375 c -45.3296,0 -81.8125,36.48292 -81.8125,81.8125 l 0,345 L 1704.5,671.8125 c 8.3641,-8.4394 8.3143,-21.9797 -0.125,-30.34375 l -100.5312,-99.625 -111.7188,0 z M 1749.1562,690.75 c -3.4619,0.0348 -6.9012,1.41544 -9.5312,4.09375 l -329.3125,335.34375 0,36.375 c 0,45.3296 36.4829,81.8437 81.8125,81.8437 l 27.25,0 334.875,-340.99995 c 5.26,-5.35663 5.1693,-13.92741 -0.1875,-19.1875 l -95.2813,-93.5625 c -2.6783,-2.63004 -6.163,-3.94106 -9.625,-3.90625 z m 140.6876,142.65625 c -5.4777,0.0218 -10.943,2.1553 -15.125,6.375 l -305.8438,308.62495 367.5625,0 c 45.3296,0 81.8437,-36.5141 81.8437,-81.8437 l 0,-114.65625 -113.25,-112.25 c -4.2197,-4.18203 -9.7098,-6.27183 -15.1874,-6.25 z"
           id="rect8384-7"
           inkscape:connector-curvature="0" />
        <path
           style="fill:#ce1126;fill-opacity:1;stroke:none"
           d="m 1667.9687,541.84375 350.3125,353.87502 0,-353.87502 -350.3125,0 z"
           id="rect8384-15"
           inkscape:connector-curvature="0" />
      </g>
      <g
         transform="translate(1332.5625,458.41118)"
         id="g9160">
        <path
           style="fill:#0038a8;fill-opacity:1;stroke:none"
           d="m 87.125,721.28125 -9.59375,44.4375 c 0,0 85.12214,-6.81619 95.21875,-1.25 6.24831,3.44465 9.11213,13.35332 7.0625,20.1875 -4.55554,15.18973 -30.38096,29.25394 -43.4375,35.5 l 0,-51.15625 -52.03125,0 0,144.96875 52.03125,0 1.42857,-44.97768 c 15.20107,-7.99326 47.28791,-23.04676 61.69643,-39.11607 12.9436,-14.43553 22.72131,-31.46756 26.53125,-51.78125 5.80485,-30.94998 -15.97872,-49.43304 -37.375,-53.78125 C 172.60082,721.04967 87.125,721.28125 87.125,721.28125 z"
           id="path9144"
           inkscape:connector-curvature="0"
           sodipodi:nodetypes="ccssccccccsssc" />
        <path
           style="fill:#0038a8;fill-opacity:1;stroke:none"
           d="m 372.14286,763.07647 -11.38525,-41.29859 -115.80093,-0.5484 0.0433,191.84699 120.16588,-0.92349 11.26269,-40.50508 -80.67096,0.25254 -0.0433,-37.3954 58.57142,-0.71429 10,-40.71428 -69.28571,1.05348 0,-31.05348 z"
           id="path9149"
           inkscape:connector-curvature="0"
           sodipodi:nodetypes="ccccccccccccc" />
        <path
           style="fill:#0038a8;fill-opacity:1;stroke:none"
           d="m 398.57143,720.93361 -10,42.14286 57.85714,0 -64.28571,148.57143 121.42857,0.71428 L 515,870.93361 l -65.71429,0 68.57143,-150.71428 z"
           id="path9151"
           inkscape:connector-curvature="0" />
        <path
           inkscape:connector-curvature="0"
           style="fill:#0038a8;fill-opacity:1;stroke:none"
           d="m 649.3125,720 c -13.80314,-0.0721 -30.24829,0.63554 -40.75,3.78125 -21.78755,6.52631 -43.63664,17.83874 -58.5625,35 -15.2647,17.55085 -23.44888,41.31827 -27.15625,64.28125 -3.35006,20.74987 -0.74873,42.65788 5,62.875 5.27157,18.53903 26.4375,51.4375 26.4375,51.4375 l 37.15625,-25.71875 c 0,0 -12.51628,-19.17495 -15.71875,-30 -2.78168,-9.4027 -3.02276,-19.45352 -2.875,-29.28125 l 57.5,0 0,59.625 47.15625,0 0,-142.125 -47.15625,0 0,41.40625 -54.03125,0 c 0.78516,-3.27526 1.74817,-6.48005 2.96875,-9.625 4.20621,-10.83768 10.72183,-21.58926 20,-28.59375 10.45652,-7.89408 24.17848,-11.04574 37.15625,-12.84375 16.30046,-2.25835 49.28125,2.84375 49.28125,2.84375 l -11.4375,-42.125 c 0,0 -11.16561,-0.86536 -24.96875,-0.9375 z"
           id="path9153" />
      </g>
    </g>
  </g>
</svg>
