<svg width="400" height="165" viewBox="0 0 400 165" fill="none" xmlns="http://www.w3.org/2000/svg">
<path d="M135.029 83.3375V34.0289H147.733V85.5105C147.733 91.0264 148.234 96.5422 153.416 96.5422C158.597 96.5422 159.099 91.0264 159.099 85.5105V34.0289H171.802V83.3375C171.802 98.548 167.79 107.073 153.416 107.073C139.041 107.073 135.029 98.548 135.029 83.3375Z" fill="#1D8FDD"/>
<path d="M188.015 107.574C185.842 107.574 184.003 107.24 182.332 106.571C180.661 105.903 179.323 105.067 178.32 103.897C177.318 102.727 176.315 101.39 175.646 99.7181C174.977 98.0466 174.476 96.2079 174.309 94.3693C173.975 92.5307 173.975 90.3578 173.975 88.0177V67.7928C173.975 65.2856 174.142 63.1126 174.476 61.1069C174.81 59.1011 175.312 57.4296 175.813 55.7581C176.482 54.0866 177.318 52.7494 178.488 51.5794C179.49 50.5765 180.995 49.7408 182.499 49.0722C184.171 48.4036 186.009 48.2365 188.182 48.2365C190.689 48.2365 192.862 48.5707 194.534 49.4065C196.372 50.2422 197.71 51.2451 198.713 52.7494C199.715 54.2538 200.551 55.9253 200.885 57.931C201.387 59.9368 201.554 62.2769 201.554 64.9513V69.9657H192.862V64.9513C192.862 62.1097 192.695 60.104 192.528 59.1011C192.027 57.0953 190.689 56.0924 188.684 55.9253C188.516 55.9253 188.349 55.9253 188.182 55.9253C187.346 55.9253 186.678 56.0924 186.176 56.2596C185.675 56.4267 185.174 56.761 184.839 57.2624C184.505 57.7639 184.171 58.2653 184.003 58.7668C183.836 59.2682 183.669 59.9368 183.502 60.7726C183.335 61.6083 183.335 62.444 183.335 63.1126C183.335 63.7812 183.335 64.7841 183.335 65.787V90.3578C183.335 93.7007 183.669 96.2079 184.505 97.7123C185.174 99.2166 186.511 99.8852 188.349 99.8852C189.018 99.8852 189.519 99.718 190.021 99.5509C190.522 99.3838 190.857 99.2166 191.191 98.8823C191.525 98.548 191.859 98.2137 192.027 97.7123C192.194 97.2108 192.361 96.7094 192.528 96.3751C192.695 95.8737 192.695 95.3722 192.862 94.5365C192.862 93.7007 193.029 93.0321 193.029 92.5307C193.029 92.0292 193.029 91.1935 193.029 90.3578V85.009H201.721V89.8563C201.721 92.0292 201.554 94.035 201.387 95.7065C201.053 97.378 200.718 99.0495 200.05 100.554C199.381 102.058 198.545 103.395 197.542 104.398C196.54 105.401 195.202 106.237 193.698 106.738C191.859 107.24 190.021 107.574 188.015 107.574Z" fill="#064076"/>
<path d="M221.279 107.574C216.097 107.574 212.42 105.903 210.247 102.727C208.074 99.5509 206.904 94.7036 206.904 88.5191V66.957C206.904 63.9484 207.239 61.274 207.573 58.9339C208.074 56.5939 208.91 54.7552 209.913 53.0837C211.083 51.4123 212.587 50.2422 214.426 49.4065C216.265 48.5707 218.605 48.2365 221.112 48.2365C226.293 48.2365 229.971 49.9079 232.144 53.0837C234.317 56.2596 235.487 60.9397 235.487 67.1242V88.352C235.487 91.3607 235.152 94.035 234.651 96.3751C234.149 98.7152 233.314 100.721 232.144 102.392C230.974 104.064 229.469 105.401 227.631 106.237C226.126 107.073 223.953 107.574 221.279 107.574ZM219.106 99.2166C219.775 99.5509 220.443 99.7181 221.446 99.7181C222.449 99.7181 223.118 99.5509 223.786 99.2166C224.455 98.8823 224.956 98.548 225.291 98.0466C225.625 97.5451 225.959 96.8765 226.126 96.0408C226.293 95.2051 226.461 94.3693 226.628 93.7007C226.628 92.865 226.795 92.0292 226.795 90.8592V64.4498C226.795 63.1126 226.795 61.9426 226.628 60.9397C226.461 59.9368 226.293 59.1011 225.959 58.2653C225.625 57.4296 225.123 56.761 224.455 56.4267C223.786 56.0924 222.783 55.7581 221.78 55.7581C220.778 55.7581 219.775 55.9253 219.106 56.4267C218.438 56.761 217.936 57.4296 217.602 58.2653C217.267 59.1011 217.1 59.9368 216.933 60.9397C216.766 61.9426 216.766 63.1126 216.766 64.4498V90.8592C216.766 92.0292 216.766 92.865 216.933 93.7007C216.933 94.5365 217.1 95.3722 217.435 96.0408C217.602 96.8765 217.936 97.5451 218.27 98.0466C217.936 98.548 218.438 98.8823 219.106 99.2166Z" fill="#064076"/>
<path d="M242.338 106.905V48.7379H248.522L260.891 81.6661V48.7379H268.413V106.905H262.396L250.027 72.3058V106.905H242.338Z" fill="#064076"/>
<path d="M275.768 106.905V48.7379H281.952L294.321 81.6661V48.7379H301.843V106.905H295.825L283.456 72.3058V106.905H275.768Z" fill="#064076"/>
<path d="M309.195 106.905V48.7379H330.089V56.2596H318.221V72.9744H327.582V80.496H318.221V99.7181H330.089V107.073H309.195V106.905Z" fill="#064076"/>
<path d="M348.98 107.574C346.807 107.574 344.968 107.24 343.297 106.571C341.625 105.903 340.288 105.067 339.285 103.897C338.282 102.727 337.28 101.39 336.611 99.7181C335.942 98.0466 335.441 96.2079 335.274 94.3693C334.939 92.5307 334.939 90.3578 334.939 88.0177V67.7928C334.939 65.2856 335.107 63.1126 335.441 61.1069C335.775 59.1011 336.277 57.4296 336.778 55.7581C337.447 54.0866 338.282 52.7494 339.452 51.5794C340.455 50.5765 341.96 49.7408 343.464 49.0722C345.135 48.4036 346.974 48.2365 349.147 48.2365C351.654 48.2365 353.827 48.5707 355.499 49.4065C357.337 50.2422 358.674 51.2451 359.677 52.7494C360.68 54.2538 361.516 55.9253 361.85 57.931C362.352 59.9368 362.519 62.2769 362.519 64.9513V69.9657H353.827V64.9513C353.827 62.1097 353.66 60.104 353.493 59.1011C352.991 57.0953 351.654 56.0924 349.648 55.9253C349.481 55.9253 349.314 55.9253 349.147 55.9253C348.311 55.9253 347.643 56.0924 347.141 56.2596C346.64 56.4267 346.138 56.761 345.804 57.2624C345.47 57.7639 345.135 58.2653 344.968 58.7668C344.801 59.2682 344.634 59.9368 344.467 60.7726C344.3 61.6083 344.3 62.444 344.3 63.1126C344.3 63.7812 344.3 64.7841 344.3 65.787V90.3578C344.3 93.7007 344.634 96.2079 345.47 97.7123C346.138 99.2166 347.476 99.8852 349.314 99.8852C349.983 99.8852 350.484 99.718 350.986 99.5509C351.487 99.3838 351.821 99.2166 352.156 98.8823C352.49 98.548 352.824 98.2137 352.991 97.7123C353.159 97.2108 353.326 96.7094 353.493 96.3751C353.66 95.8737 353.66 95.3722 353.827 94.5365C353.827 93.7007 353.994 93.0321 353.994 92.5307C353.994 92.0292 353.994 91.1935 353.994 90.3578V85.009H362.686V89.8563C362.686 92.0292 362.519 94.035 362.352 95.7065C362.017 97.378 361.683 99.0495 361.015 100.554C360.346 102.058 359.51 103.395 358.507 104.398C357.504 105.401 356.167 106.237 354.663 106.738C352.824 107.24 350.986 107.574 348.98 107.574Z" fill="#064076"/>
<path d="M373.549 106.905V56.5939H365.191V48.7379H390.765V56.5939H382.742V106.905H373.549Z" fill="#064076"/>
<path d="M144.224 138.162L138.039 116.6H140.045L145.895 136.992H144.892L150.909 116.6H152.748L158.765 136.992H157.763L163.613 116.6H165.451L159.267 138.162H157.261L151.578 118.94H152.08L146.396 138.162H144.224Z" fill="black"/>
<path d="M185.341 138.496C184.004 138.496 182.667 138.162 181.497 137.661C180.327 137.159 179.324 136.324 178.321 135.321C177.485 134.318 176.817 133.148 176.315 131.811C175.814 130.473 175.646 128.969 175.646 127.465C175.646 125.96 175.814 124.456 176.315 123.119C176.817 121.782 177.485 120.612 178.321 119.609C179.157 118.606 180.159 117.77 181.33 117.269C182.5 116.767 183.837 116.433 185.174 116.433C186.511 116.433 187.848 116.767 189.018 117.269C190.188 117.77 191.191 118.606 192.027 119.609C192.863 120.612 193.531 121.782 194.033 123.119C194.534 124.456 194.701 125.96 194.701 127.465C194.701 128.969 194.534 130.473 194.033 131.811C193.531 133.148 192.863 134.318 192.027 135.321C191.191 136.324 190.188 136.992 189.018 137.661C188.183 138.162 186.845 138.496 185.341 138.496ZM185.341 136.324C186.511 136.324 187.514 136.156 188.35 135.655C189.353 135.154 190.188 134.652 190.857 133.816C191.526 132.981 192.027 131.978 192.528 130.975C192.863 129.972 193.03 128.635 193.03 127.465C193.03 126.128 192.863 124.957 192.528 123.955C192.194 122.952 191.526 121.949 190.857 121.113C190.188 120.277 189.353 119.609 188.35 119.274C187.347 118.773 186.344 118.606 185.341 118.606C184.171 118.606 183.168 118.773 182.165 119.274C181.162 119.776 180.327 120.277 179.658 121.113C178.989 121.949 178.488 122.952 177.987 123.955C177.652 124.957 177.318 126.295 177.318 127.465C177.318 128.802 177.485 129.972 177.987 130.975C178.321 132.145 178.989 132.981 179.658 133.816C180.327 134.652 181.162 135.321 182.165 135.655C183.335 136.156 184.338 136.324 185.341 136.324Z" fill="black"/>
<path d="M208.074 138.162V116.6H215.094C216.599 116.6 217.936 116.934 219.106 117.436C220.276 118.104 221.112 118.94 221.78 119.943C222.449 121.113 222.616 122.45 222.616 123.955C222.616 125.459 222.282 126.796 221.78 127.966C221.112 129.136 220.276 129.972 219.106 130.473C217.936 131.142 216.599 131.309 215.094 131.309H209.077L209.913 130.306V138.162H208.074ZM209.913 130.473L209.077 129.47H214.927C216.766 129.47 218.27 128.969 219.106 128.133C220.109 127.13 220.61 125.793 220.61 124.122C220.61 122.45 220.109 121.113 219.106 120.11C218.103 119.107 216.766 118.773 214.927 118.773H209.077L209.913 117.77V130.473ZM220.61 138.162L215.763 130.306H217.936L222.783 138.162H220.61Z" fill="black"/>
<path d="M235.654 138.162V116.6H237.66V136.156H248.023V138.162H235.654Z" fill="black"/>
<path d="M259.723 138.162V116.6H267.244C269.25 116.6 270.922 117.102 272.426 117.937C273.93 118.773 275.1 120.11 275.936 121.782C276.772 123.453 277.106 125.292 277.106 127.465C277.106 129.638 276.772 131.476 275.936 133.148C275.1 134.819 273.93 135.989 272.426 136.992C270.922 137.828 269.25 138.329 267.244 138.329H259.723V138.162ZM261.728 136.324H267.244C268.916 136.324 270.253 135.989 271.59 135.154C272.76 134.485 273.763 133.315 274.432 131.978C275.1 130.641 275.435 129.136 275.435 127.465C275.435 125.793 275.1 124.122 274.432 122.952C273.763 121.615 272.76 120.612 271.59 119.776C270.42 119.107 268.916 118.606 267.244 118.606H261.728V136.324Z" fill="black"/>
<path d="M293.653 138.162L287.469 116.6H289.475L295.325 136.992H294.322L300.339 116.6H302.178L308.195 136.992H307.192L313.042 116.6H314.881L308.697 138.162H306.691L301.008 118.94H301.509L295.826 138.162H293.653Z" fill="black"/>
<path d="M326.914 138.162V116.6H328.92V138.162H326.914Z" fill="black"/>
<path d="M343.465 138.162V116.6H350.987C352.992 116.6 354.664 117.102 356.168 117.937C357.672 118.773 358.842 120.11 359.678 121.782C360.514 123.453 360.848 125.292 360.848 127.465C360.848 129.638 360.514 131.476 359.678 133.148C358.842 134.819 357.672 135.989 356.168 136.992C354.664 137.828 352.992 138.329 350.987 138.329H343.465V138.162ZM345.471 136.324H350.987C352.658 136.324 353.995 135.989 355.332 135.154C356.502 134.485 357.505 133.315 358.174 131.978C358.842 130.641 359.177 129.136 359.177 127.465C359.177 125.793 358.842 124.122 358.174 122.952C357.505 121.615 356.502 120.612 355.332 119.776C354.162 119.107 352.658 118.606 350.987 118.606H345.471V136.324Z" fill="black"/>
<path d="M375.723 136.324H386.922V138.329H373.885V116.6H386.588V118.606H375.891V136.324H375.723ZM375.556 126.295H385.418V128.3H375.556V126.295Z" fill="black"/>
<path d="M30.2274 76.986C30.2274 78.4903 30.896 79.8275 31.7317 80.9975C31.2303 81.8332 30.5617 82.669 30.0602 83.5047C22.2043 84.1733 15.3512 88.8535 11.8411 95.5394C11.0053 91.5278 10.5039 87.3491 10.5039 83.0033C10.5039 68.4614 15.8526 55.0896 24.7115 44.7264C26.383 53.2509 29.0573 62.9455 33.0689 72.1387C31.3974 72.9744 30.2274 74.813 30.2274 76.986Z" fill="#ADD0FC"/>
<path d="M38.4194 82.3347C38.5865 82.669 38.9208 83.0032 39.088 83.3375H32.7363C32.9035 83.0032 33.2378 82.669 33.4049 82.3347C34.0735 82.669 35.0764 83.0032 35.9121 83.0032C36.915 82.8361 37.7508 82.669 38.4194 82.3347Z" fill="#ADD0FC"/>
<path d="M35.0745 71.3029C30.7287 61.6083 28.0543 51.2451 26.3828 42.5534C27.8871 40.8819 29.3915 39.3776 31.063 38.0404C35.9103 37.3718 41.0918 36.7032 46.942 36.5361C47.1092 38.8761 48.7807 40.8819 50.9536 41.5505C50.1178 46.8993 49.6164 52.5823 49.7835 58.0982C48.7807 58.7668 48.1121 60.104 48.1121 61.4411C48.1121 62.1097 48.2792 62.6112 48.4464 63.1126C45.1034 65.6198 41.9276 68.4613 38.9189 71.8043C38.0832 71.3029 37.0803 70.9686 36.0774 70.9686C35.7431 71.1357 35.4088 71.3029 35.0745 71.3029Z" fill="#ADD0FC"/>
<path d="M47.1095 34.3632C42.5965 34.5304 38.4178 34.8647 34.4062 35.3661C40.2564 31.0203 47.1095 27.6773 54.2969 25.8387C53.9626 27.1759 53.4611 28.513 53.1268 30.0174C52.9597 30.0174 52.7925 30.0174 52.7925 30.0174C50.1182 30.0174 47.9452 31.856 47.1095 34.3632Z" fill="#ADD0FC"/>
<path d="M50.2836 65.1184C50.9522 71.1358 52.4565 77.3203 55.1309 83.3376H41.9262C41.4248 82.5018 40.9233 81.8332 40.4219 80.9975C41.4248 79.9946 41.9262 78.4903 41.9262 76.986C41.9262 75.6488 41.4248 74.3116 40.589 73.4758C43.5977 70.3 46.7735 67.4585 49.9493 64.9513C49.9493 64.9513 50.1165 65.1184 50.2836 65.1184Z" fill="#ADD0FC"/>
<path d="M58.978 36.8705C68.6726 37.5391 78.8686 39.712 89.0647 43.8907C88.5632 44.7264 88.2289 45.7293 88.2289 46.7322C82.3787 47.9023 76.6957 49.2394 71.1798 51.2452C65.6639 53.251 60.3152 55.7582 55.1336 58.7669C54.465 57.9311 53.295 57.4297 52.125 57.4297H51.9578C51.7907 52.081 52.2921 46.8994 53.1278 41.8849C55.9694 41.8849 58.4766 39.712 58.978 36.8705Z" fill="#ADD0FC"/>
<path d="M55.4668 30.5188C55.9682 28.6801 56.4697 27.0087 56.9711 25.3372C60.9827 24.5014 65.1614 24 69.3401 24C86.8906 24 102.77 31.6888 113.467 43.8906C108.787 44.0578 104.107 44.5592 99.4267 45.0607C98.7582 42.7206 96.5852 40.882 93.9109 40.882C92.5737 40.882 91.4036 41.3834 90.4007 42.052C79.7033 37.539 68.8386 35.3661 58.8098 34.5303C58.4755 32.8588 57.1383 31.3545 55.4668 30.5188Z" fill="#ADD0FC"/>
<path d="M100.43 47.2335C105.444 46.7321 110.291 46.3978 115.306 46.0635C120.822 52.9165 124.833 61.1068 126.839 69.9656C118.649 59.9368 109.623 52.5823 100.43 47.2335Z" fill="#ADD0FC"/>
<path d="M128.177 82.8361C128.177 88.8535 127.341 94.7037 125.503 100.22C122.661 90.525 113.802 83.3376 103.105 83.3376H57.4734C54.7991 77.4874 53.2947 71.4701 52.459 65.4527C54.4648 65.2856 55.9691 63.6141 55.9691 61.4412C55.9691 61.274 55.9691 60.9397 55.9691 60.7726C65.998 54.7553 77.0297 51.078 88.563 48.9051C89.3987 51.078 91.5716 52.5823 93.9117 52.5823C96.2518 52.5823 98.4247 51.078 99.2604 49.0722C109.289 54.9224 118.984 63.1127 127.508 74.6459C128.01 77.3203 128.177 80.1618 128.177 82.8361Z" fill="#ADD0FC"/>
<path d="M83.0466 106.237H74.522C73.352 106.237 72.3491 106.404 71.1791 106.404C72.3491 108.243 73.0177 110.583 73.0177 112.923V117.101C72.8506 123.286 68.1704 128.468 62.1531 129.136C61.6516 129.136 61.3173 129.303 60.8159 129.303H32.2336C25.3805 129.303 19.8646 123.787 19.8646 116.934V112.923C19.8646 106.404 24.8791 101.222 31.2307 100.721V89.6892C18.8617 90.1907 9 100.387 9 112.923V116.934C9 129.805 19.3632 140.168 32.2336 140.168H60.8159C61.9859 140.168 62.9888 140.001 64.1589 140.001C75.3578 138.329 84.0495 128.802 84.0495 117.101V112.923C84.2166 110.75 83.7152 108.41 83.0466 106.237Z" fill="url(#paint0_linear_593_4582)"/>
<path d="M35.7441 89.8564V100.721H49.116C49.9517 99.0495 50.9546 97.5452 51.9575 96.208C52.7932 95.2051 53.629 94.2022 54.6319 93.3665C56.1362 92.0293 57.8077 90.8593 59.4792 89.8564H35.7441Z" fill="#DAE1E1"/>
<path d="M109.122 127.799C107.283 128.802 105.277 129.303 103.104 129.303H87.0582C84.8853 133.816 81.3751 137.661 77.0293 140.168H103.104C109.79 140.168 115.975 137.326 120.153 132.646C115.473 131.476 111.796 129.638 109.122 127.799Z" fill="#0F3964"/>
<path d="M123.329 101.39C120.655 101.557 116.476 102.058 111.629 104.064C113.969 106.237 115.473 109.413 115.473 112.923V116.934C115.473 119.943 114.47 122.617 112.632 124.79C115.139 126.295 118.649 127.966 123.162 128.969C125.335 125.459 126.505 121.447 126.505 117.101V113.09C126.505 108.744 125.335 104.9 123.329 101.39Z" fill="#DAE1E1"/>
<path d="M103.272 89.8564H74.5226C68.5053 89.8564 62.8223 92.1965 58.8107 96.0409C57.975 96.8766 57.1392 97.7123 56.4706 98.5481C53.2948 102.56 51.2891 107.574 51.2891 113.09V117.102C51.2891 119.776 51.7905 122.283 52.6263 124.623H60.8165C62.1537 124.623 63.3237 124.456 64.4938 124.122C62.9894 122.116 62.3208 119.776 62.3208 117.102V113.09C62.3208 107.574 65.9981 102.894 71.0125 101.39C71.1797 101.39 71.1797 101.222 71.3468 101.222C72.3497 100.888 73.5198 100.721 74.5226 100.721H103.105C104.442 100.721 105.779 100.888 107.117 101.39C112.131 98.7152 116.644 97.7123 120.154 97.2109C115.975 92.6979 109.958 89.8564 103.272 89.8564Z" fill="url(#paint1_linear_593_4582)"/>
<defs>
<linearGradient id="paint0_linear_593_4582" x1="46.5777" y1="89.8311" x2="46.5777" y2="140.324" gradientUnits="userSpaceOnUse">
<stop stop-color="#187AC0"/>
<stop offset="1" stop-color="#0F3964"/>
</linearGradient>
<linearGradient id="paint1_linear_593_4582" x1="82.2496" y1="88.1017" x2="87.886" y2="120.067" gradientUnits="userSpaceOnUse">
<stop stop-color="#187AC0"/>
<stop offset="1" stop-color="#0F3964"/>
</linearGradient>
</defs>
</svg>
